<?xml version="1.0" encoding="utf-8"?>
<!-- Generator: Adobe Illustrator 22.0.0, SVG Export Plug-In . SVG Version: 6.00 Build 0)  -->
<svg version="1.1" id="Calque_1" xmlns="http://www.w3.org/2000/svg" xmlns:xlink="http://www.w3.org/1999/xlink" x="0px" y="0px"
	 viewBox="0 0 263 300.4" style="enable-background:new 0 0 263 300.4;" xml:space="preserve">
<style type="text/css">
	.st0{fill:#CE3B2F;}
	.st1{fill:#030202;}
	.st2{fill:none;}
	.st3{fill:#FFFFFF;}
	.st4{fill:#ECECEC;}
	.st5{display:none;}
	.st6{display:inline;}
</style>
<g id="fond">
	<g>
		<circle class="st0" cx="131.3" cy="160.6" r="96.7"/>
		<g>
			<path class="st1" d="M131.3,259.7c-54.7,0-99.2-44.5-99.2-99.2s44.5-99.2,99.2-99.2s99.2,44.5,99.2,99.2S186,259.7,131.3,259.7z
				 M131.3,66.4c-51.9,0-94.2,42.2-94.2,94.2s42.2,94.2,94.2,94.2s94.2-42.2,94.2-94.2S183.2,66.4,131.3,66.4z"/>
		</g>
	</g>
</g>
<g id="persos">
	<g>
		<path d="M198.5,211.7c-0.7-3-2.3-5.6-4.1-8.1c-0.3-2.3-0.3-4.4-0.7-6.9s-1.7-7.1-2-7.8c-3.4-6.6-11.4-21-12.8-21.6
			c-2.6-1.1-2.1-4.2-1.7-6.9c0.9-4.8-4.1-12.9-8.4-13.9c-7.6-1.8-15.9-8.5-24.1-7c-2.7,0.5-6.3-0.6-3.8-5.9
			c3.1-6.4,5.8-13.4,10.3-18.9c3.8-4.6,7.4-8.6,5.8-14.6c-0.5-1.9-1.2-6.1,0.5-7.1c2.8-1.6,5,0.2,6.5,0.9c2.4,1.3,4.6-1.3,1.8-4
			c-2.5-2.4-6.8-5.4-7.8-6c0,0-1.8-1.6-3.9-1c-1.9,0.6-1.6,1.8-2.3,4.4c-0.5,2-1.2,3-3.4,4.7c-1.1,0.8-5.4,3.3-7.2,6.3
			c-3.3,5.5-4.9,9.4-10.2,15.4c-3.7,4.2-6,11.7-7.8,13.5c-2.3,2.3-3.2-1-5.4-2.3c-1.4-0.8-3.4-1.6-5.1,0.6c-1.7,2.3-3.4,1.7-4.8-3.9
			c-1.5-6-4.6-16.6-4.9-20.7c-0.3-4.6-2-8.7-3.6-12.9c-0.7-1.9-2-3.1-3.9-3.8c-1.3-0.4-2.3-1.4-2.8-2.6c0,0,0-7.7-0.5-11.9
			c-0.2-1.6-4.4-1.4-6.8-0.4s-4.9,5.2-4,7.9c2,5.7,2,6.1,2,6.1c1.3,1.8,0.9,4.1,0,6.3c-0.6,1.7-0.5,3.3-0.3,5.1
			c0.5,4.4,3.1,7.8,4.9,11.6c2.7,6,4.3,12.1,1.7,18.6c-1.2,3-2.4,6.1-3.1,9.2C85,141.3,84.7,145,89,152c0.2,0.4-1.2,4.6-1.2,5.1
			c-0.6,8.4,4.1,15.5,6.2,23.2c1.8,6.5,7.6,9.4,13.3,11.9c2.5,1.1,5.8,2.8,8.3,3.8c1.4,0.6,0.3,2.7,0.5,4.9c0.4,4.4,5.1,7.5,9.3,7.8
			c2.2,0.1,5.5,0,6.8-0.9c1.1-0.8-1.8,5.4-3.2,7.5c-4.7,6.7-2.3,11-0.4,18.4c0.3,1.1-3.5,5.5-0.6,9.9c2.7,3.9,5,1.6,5.8,0.7
			c0.8-0.9,1-5,1.2-6.1c0.5-3.5,0.2-6.9,3.4-7.4c0.4-0.1,2.8-1.3,3.1-1.6c4.9-6.1,7-13.3,7.8-21c0.6-5.3,1.9-6.4,7.3-6.9
			c2.3-0.2,4.6-0.8,6-2.6c1.6-2,3.7-3.2,5.7-4.7c1.5-1.1,2.5-1.2,4.4,0.1c2.6,1.8,15,10.4,14.2,10.2c0.4,1.2,1.3,1.7,2.8,1.5
			c2.1,2.2,1.5,5.4,3,7.9c0.6,1.1,1.1,2.2,2.4,2.3C197.2,216.4,199.2,214.5,198.5,211.7z"/>
		<path class="st2" d="M109.3,137.6c-0.1,0-0.1,0.1-0.2,0.1C109.2,137.6,109.3,137.6,109.3,137.6z"/>
		<path class="st2" d="M108.4,137.9c-0.3,0.1-0.7,0.1-1.1,0.2C107.7,138.1,108.1,138,108.4,137.9z"/>
		<path class="st2" d="M110.6,133.5c0.1,2.1-0.3,3.3-1.2,4C110.4,136.8,110.7,135.6,110.6,133.5c-0.1-1.3,0.3-3-1.1-3.3
			C111,130.5,110.5,132.2,110.6,133.5z"/>
		<path class="st2" d="M176,194.9c-0.2-0.2-0.5-0.3-0.7-0.5C175.5,194.5,175.7,194.7,176,194.9z"/>
		<path class="st2" d="M187.3,202.6c1.7-1.8,3.7-3.3,4.9-5.6l0,0C191.1,199.3,189,200.8,187.3,202.6z"/>
		<path class="st2" d="M178.3,196.4c-0.4-0.2-0.7-0.5-1.1-0.7C177.6,195.9,178,196.2,178.3,196.4z"/>
		<path class="st3" d="M113.4,153.7c0,0-2.2,5.5-2.4,6.5s0.1,4.5-0.5,6.9c-0.7,2.6,1.4,4.6,1.5,7.1c0,0.6,0.6,0.7,1.1,0.7
			c1.1-0.1,1.8-0.9,2.2-1.8c1.2-2.9,2.2-5.8,3.3-8.7c1.9-4.8,4.5-8.9,9.3-11.2c0.9-0.4,2.7-0.2,2.3-1.8c-0.3-1.3-1.7-2.2-3.1-2.4
			C121.8,148.3,116.8,148.6,113.4,153.7z"/>
		<path class="st3" d="M94.2,147.2c0-0.1,0.1-0.2,0.1-0.4c1.9-6.3,5.5-9,11.9-8.7c0.4,0,0.8,0,1.2,0c0.4,0,0.7-0.1,1.1-0.2
			c0.3-0.1,0.5-0.1,0.7-0.3c0.1,0,0.1-0.1,0.2-0.1l0.1-0.1c0.9-0.7,1.2-1.9,1.2-4c-0.1-1.3,0.3-3-1.1-3.3c-0.3-0.1-0.8-0.1-1.4,0
			c-0.8,0.1-1.1-0.9-1.3-1.6c-1-4.1-2.9-8-2.8-12.3c0-1.9-0.3-3.7-1.3-5.3c-2.9-4.5-3.3-9.8-3.6-14.9c-0.2-2.9-1.5-4.9-3-6.9
			c-1.9-2.4-3.4-4.1-6.4-1.9c-2.6,1.9-4.2,5.3-2.3,8.4c2,3.1,2.2,6.7,3.5,10.2c1.4,4.1,2.8,5.8,3.8,0.7c0.2-1.1,0.4-2.8,1.8-2.2
			c1.5,0.7,0.5,1.9,0.2,2.9c-3.1,10.4-2.3,12.3-2.6,16.7c-0.2,4.4-3.2,7.9-4.2,12.3c-1,4.2-2.1,8.2,0.6,11.7
			C92.3,149.9,93.4,149.5,94.2,147.2z M97.2,123.8c2.3,0.4,5.7,7.1,4.6,9.1c-0.7,1.1-1.8,1.7-2.5,0.2c-1.2-2.5-2.1-5.2-3-7.8
			C96.1,124.6,96.3,123.8,97.2,123.8z"/>
		<path class="st4" d="M109.5,137.5l-0.1,0.1C109.4,137.5,109.4,137.5,109.5,137.5z"/>
		<path class="st4" d="M109.1,137.7c-0.2,0.1-0.5,0.2-0.7,0.3C108.7,137.9,108.9,137.8,109.1,137.7z"/>
		<g>
			<path class="st3" d="M140.1,181.4c0.4,0,0.8,0.2,1.1,0.7c0.4,0.7,4.8,1.6,6.5,1.4c1.4-0.2,2.7-0.5,3.8,0.6
				c1.3,1.2,3.1,1.2,4.7,1.8c0.7,0.3,1.5,0.5,1.9-0.4c0.8-1.9-0.4-3.4-1.5-4.7c-1-1.1-1.7-3-3.9-1.8c-4.2,2.4-8.4,0.2-12.2-0.8
				c-4.1-1.1-4.5-5.5-4-8.7c0.2-1.1,0.8-4.4-1.5-3.4c-1.6,0.7-3.3,2.6-3.2,4.5c0,1.4,4.4,4.3,4.4,5.8c0,0-4.3,0.2-4.8,0.7
				c-1.2,1.3,2.6,5.1,5.1,5c0.8,0.3,2.5,0.1,2.6-0.5L140.1,181.4z"/>
		</g>
		<path class="st3" d="M140.2,183.6c-1,0-2.2,0-3,0.3c-1,0.4,1.5,2-1,1.8c-2.1-0.2-2.1,4-0.3,5.9c0.8,0.8,5.5,1,6.2,0.7
			c1.7-0.7,2.9-6.3,2-6.9C143.4,184.9,141.3,183.6,140.2,183.6z"/>
		<path class="st3" d="M138.4,195.5c0.6,4.2-1.9,6.9-3.9,10.5c-0.3,0.5-1,1-0.4,1.6s1.1,0.2,1.5-0.4c1.9-3.1,3.1-0.4,3.5,0.8
			c0.7,2.2,1.6,4.3,2.9,6.2c0.7,1,0.1,2.3-0.9,1.6c-2-1.4-2.2-2.6-3-4.9c-0.3-1-2.1-1.9-3.8-1.7c-1.5,0.2-1.4,3.2-1.9,4.1
			c-1.7,3.1-4,4.9-4.9,8.6c-1,4.1,0.6,5.4,1.9,6.5c4.2,3.8,9.3,1.2,12.1-3.9c3.2-5.8,3.5-12.5,5.8-18.4c2.4-6.1,1.4-9.3-4.5-12.1
			L138.4,195.5z"/>
		<path class="st3" d="M192.2,197.1c-1.6-6.2-5.2-12.4-7.4-15.7c-2.4-3.7-4.9-7.3-7.6-10.7c-1.1-1.4-2.1-5.5-3.2-6.7
			c-1-1.1-7.7-3.9-10-3.2c1.4,1.6,4.4,7.2,5.7,8.5c1.7,1.7,3.2,12.6,1.5,16c-1.6,3.1,1,6.7,4.2,9.1c0.2,0.2,0.5,0.3,0.7,0.5
			c0.4,0.2,0.8,0.5,1.2,0.8c0.4,0.2,0.7,0.5,1.1,0.7c2.9,1.8,8.9,6.2,9,6.2C192.9,205.7,193.8,203.3,192.2,197.1z M178.4,189
			c-0.4,0.4-0.6,1.1-1.4,0.9c-0.9-0.3-1-1.1-0.8-1.8c0.5-1.9,1-3.8,1.5-5.8c0.2-0.9,0-2.3,1.3-2.2c1.4,0.1,1.1,1.7,1.4,2.7
			C179.8,184.9,180.2,187.3,178.4,189z"/>
		<path class="st4" d="M177.3,195.7c-0.5-0.3-0.9-0.6-1.2-0.8C176.4,195.2,176.8,195.4,177.3,195.7z"/>
		<path class="st3" d="M125.2,139c-1,0.1-1.8-0.2-2.4-0.3c-2.6-0.2-4.7,1.4-6.3,2.8c-1.1,1-0.1,3.6,1.8,3.6c3,0,5.9,1.8,9,0.1
			c1.5-0.8,2,1,2.8,1.7c1,0.9,1.9,2.3,3.3,2.3c1.9,0,3.6-0.6,2.8-3.2c-0.2-0.8-0.4-1.8,0.9-2c1.1-0.1,1,0.8,1.1,1.5
			c0.8,4.1,4.5,3.3,7.1,3.9c1.4,0.3,1.7-1.8,2.3-3c0.4-0.8-0.3-2.3,1.4-2.1c1.4,0.2,0.9,1.6,0.9,2.5c0,0.2,0,0.5,0,0.7
			c0,0.1,0,0.2,0,0.3s0,0.3,0.1,0.4c0.3,1.3,1.5,3.4,1.5,3.4s0.1,0,0.2,0c2.7,0.2,4.4,2.2,6.5,3.5c0.5,0.3,0.8,1.4-0.4,1.6
			c-1,0.2-5.4-3.5-6.1-4.9c-0.1-0.1-0.2-0.2-0.4-0.1c-1.9,1.4-3.8,0.1-5.8-0.1l0,0c-0.1,0-0.2,0-0.4,0H145c-0.1,0-0.3,0-0.4,0
			c-2.4,0.4-5,0.2-7.5-0.1c-3.6-0.4-5.5,2.1-7.3,4.3c-0.5,0.6-5.7,4.3-6.2,5.1c-2.2,3.5-5.1,6.8-5,11.3c0,3.2,1.5,8.2,3.7,8.3
			c2.5,0.1,7.8-6.8,7.5-9.5c-0.4-2.6,2.8-6.5,5.2-7.2c2.2-0.6,3.3-3.5,4.7-5.3c3.9-4.8,10.5-6.5,15.1,0.3c3,4.4,4.3,8.7,1.1,13.5
			c-1.1,1.7-0.6,2.7,1.1,3.5c2.1,0.9,4.5,1.5,3.1,5.1c-0.6,1.4,1.7,2.5,3,3.5c0.7,0.6,1.9,1,1.5,2.3c-0.3,1.2-1.7,0.9-2.4,1.3
			c-4,2.9-6.7,0.3-9.8-1.7c-2.1-1.4-6.1-2.4-7.4-1.2c-0.6,0.5-0.7,3.7-1.1,4.6c-1,2,1.4,2,3.3,2.8c2.3,1,4.2,2.5,6.1,4.2
			c2.1,1.9,4.2,1.5,6.7-0.1c9.2-6,9.4-6.8,10.1-13.8c0.2-1.9,0-3.5-0.3-5.1c-1.1-5.3-2-10.6-6.8-14.2c-1.7-1.3-1.2-3.9-2.6-5.6
			c-0.6-0.8,0.4-1.2,1.5-0.8c2.3,0.9,4.7,1.4,7.1,2.1c1.6,0.4,3.1,0,4.1-1.2c1.2-1.3,0.7-4.2,0.1-5.2c-1.4-2.2-6.8-5.9-7.7-5.9
			c-5.6-0.1-10.1-3.1-14.9-5.4c-1.5-0.7-2.9-1.3-4.5-0.1c-2.8,2.2-3.2-0.3-7.6-1.3C138.6,140.4,129.5,138.5,125.2,139z M135,138.4
			c1.7,0,3.5-1.8,3.4-4.3c-0.1-1.8,2-2.7,2.8-4.2c1.5-2.8,3.5-5.3,0-8.5c-1.7-1.5-1.9-4.7-2.7-7.1c-0.2-0.5-0.3-1.3,0.6-1.5
			c0.6-0.1,0.8,0.3,1.1,0.8c1.4,2.4,3.8,4.3,3.5,7.6c2.1-0.4,2.8-2.3,3.1-3.5c1.2-4.7,5.7-8,8.1-12c1.7-2.8-0.4-6.1-1.6-7.5
			c-2.7-3.2-10.8-0.8-12,3.2c-1.6,5.3-4.7,10-8.7,13.4c-0.6,0.6-5.5,8.5-7,12.4c-0.7,1.7-2,3.4-4.5,3.8c-2.1,0.3-3.4,2.8-4,4.9
			c-0.4,1.4,0.1,3.4,1.1,2.5c1.2-1.2,4.7-0.9,5.9-0.5 M127.3,128.9c0.1-2,1.1-3.5,2.5-4.8c0.3-0.3,1.1-0.3,1.4-0.1
			c0.7,0.4,0.3,1,0,1.6c-0.8,2-2.3,3.9-0.9,6.7C127.6,131.8,127.2,130.5,127.3,128.9z M161,169.5c0.8-0.5,1.8-0.1,2.3,0.6
			c0.4,0.5,0.7,1,1,1.5c1,1.6,1.8,3.2,1.7,5.2c0,0.2,0.1,0.5,0,0.7c-0.1,1.1,0.3,2.6-1,2.9c-1.6,0.3-1.1-1.4-1.6-2.3
			c-1.1-2.1-0.7-4.6-2.4-6.5C160.3,171,160.1,170.1,161,169.5z"/>
		<g>
			<path class="st3" d="M94.8,160.2c0,0,1.8-3.3,2.9-6c0.4-0.1,0.9-0.2,1.2-0.5c5.1-3.7,7.7-11.3,6.6-12c-1.7-1.2-4.4-0.7-6.3,0.5
				c-2,1.3-6.1,8.8-6.7,9.8s-2.2,4.2-2.3,5.4c-0.3,3.5,0.4,8.4,2.6,13c0.3,0.6,1.2,1.7,2.1,0c1.3-2.4,0.6-4.9,0.3-7.3
				C95.1,162.1,94.9,161.2,94.8,160.2z"/>
			<path class="st3" d="M115.6,190c-5.3,0.5-5.5-3.6-6.5-7c-0.2-0.5-0.1-1.4,0.2-1.8c2.9-2.9,0.4-5.5,0.1-8.4
				c-0.5-4.2-1.7-8.6-0.2-12.9c0,0,2.5-5.1,3.2-6.5s1.3-2.9,1.9-4.1c1.2-2.3,3-6.3-2-8.7c-2.5-1.2-4.5,1.5-5.5,3.7
				c-1.5,3.2-2.7,6.6-5.8,8.8c-1.5,1-4.3,4-4.2,6.7c0.1,2.8,1.3,6.4,0.3,9.6c-1.6,5.1-1.7,10,1.1,14.7c1.1,1.8,2.4,4.1,5.1,1.4
				c1-1,2.1-0.6,2.6,0.8c1.4,4.4,5.4,5.4,9,7c1.5,0.7,2.1,0,2.5-1.2C117.8,190.8,117,189.9,115.6,190z M104.6,170.7
				c-1.1,1.9,1.1,5.9-2.1,5.9c-2.4,0-1.5-3.8-1.6-6c-0.1-1.9,1.2-3.3,2.7-3.2C105.2,167.6,104.3,169.5,104.6,170.7z"/>
		</g>
		<path class="st4" d="M104.8,145.1c-0.1,1.5-2.8,5.6-4.7,7.4C102,150.8,104.7,146.7,104.8,145.1"/>
		<path class="st3" d="M89.6,85.7c-0.5-3.9,0.5-7.8,0-11.6c-0.2-1.5-1.4-1-2.3-0.4c-2.5,1.6-3.3,4.4-1.3,7
			C87.1,82.3,88.3,83.9,89.6,85.7z"/>
		<path class="st3" d="M132.4,183.5c-0.4-4.6-2.9-5.7-6.6-3c-1.2,0.9-4.3,0.8-2.4,4c0.7,1.2,1,1.8,2.4,1.1c1.3-0.7,2.6-0.4,4,0.2
			C131.9,186.7,132.6,185.7,132.4,183.5z"/>
		<path class="st3" d="M113,140.1c0.8,0.2,1.5-0.2,1.8-1c1-2.4,2.1-4.7,3.4-7c0.4-0.7,0.4-6.1-0.4-4.7c-1.4,2.4-2.2,3.3-1.6-0.3
			c0.3-2.1-3.2,1.1-3.9,4.9c-0.2,1.2,0,2.5,0,3.3c-0.2,1.3-0.3,2.2-0.4,3.1C111.8,139.2,112.2,139.9,113,140.1z"/>
		<path class="st3" d="M119.6,181.6c-1-1.3-4.5-3.2-5.7-3.1c-0.6,0.1,2.9,2.7,1.9,3.1c-1.1,0.5-4.8-1-4.9,0.3c0,0.7,0.2,2.8,0.9,3.6
			c1.1,1.3,3.8,1.9,4.8,1.6c1.6,0.4,2.9-1.8,3.7-3C120.8,183.3,120.2,182.3,119.6,181.6z"/>
		<path d="M103.6,167.4c-1.6-0.1-2.8,1.3-2.7,3.2c0.1,2.2-0.7,6,1.6,6c3.2,0,1-4.1,2.1-5.9C104.3,169.5,105.2,167.6,103.6,167.4z"/>
		<path d="M99.3,133.1c0.7,1.5,1.8,0.9,2.5-0.2c1.1-1.9-2.3-8.7-4.6-9.1c-0.9,0-1.2,0.8-0.9,1.5C97.3,127.9,98.2,130.6,99.3,133.1z"
			/>
		<path class="st3" d="M156.5,86.1c-1.3-0.8-2.4,0.5-3.3,3c-0.4,1.2-3.7,3.7-2.4,5.8c1,1.5,3.1,0.7,4-0.6c2.5-3.8,4.1-4.3,7.9-2.3
			c1.1,0.6,1.5-1,0.3-1.9C161.6,89,158.1,87.1,156.5,86.1z"/>
		<path class="st3" d="M130.2,230.8c-1.6,0.1-0.9,1.4-0.7,2.3c0.8,2.6,1.4,5.1-1.6,6.8c-0.5,1.9,1.3,2.8,1.8,4.3
			c0.1,0.4,0.6,0.9,1.1,0.6c1.4-0.8,2.1-2,2.2-3.6c-0.4-2.4-1.6-4.6-1.4-7.2c0-0.4,0.1-0.7,0.2-1.1
			C132.1,231.8,131.4,230.7,130.2,230.8z"/>
		<path class="st3" d="M192.7,204.7c-1.3,0.4-0.5,1.3-0.1,1.9c1.2,1.9,0.7,2.6,0,4.7c0,1.6,1.5,2,2.2,3.1c0.2,0.3,0.6,0.6,1,0.3
			c1-0.9,1.3-2,1.1-3.3c-0.7-1.9-2.2-2.4-2.5-4.5c0-0.3-0.1-0.6-0.1-0.9C194.4,205.2,193.6,204.4,192.7,204.7z"/>
	</g>
</g>
<g id="texte">
	<g>
		<path d="M6.8,104.4l1.7-3.2l11.2,5.9c1.8,0.9,3,1.7,3.5,2.4c0.6,0.7,0.9,1.4,1,2.3s-0.1,1.8-0.6,2.7c-1,1.9-2.6,3-4.9,3.5l-1-3.4
			c0.8-0.2,1.5-0.4,1.9-0.7c0.4-0.3,0.7-0.5,0.8-0.9c0.2-0.3,0.2-0.7,0-1s-0.8-0.7-1.8-1.3L6.8,104.4z"/>
		<path d="M11.4,96l2-3l10.1,6.9c0.9,0.6,1.5,0.9,2,1s0.9,0,1.4-0.2s0.9-0.6,1.2-1.1c0.4-0.5,0.5-1.1,0.6-1.6c0-0.5-0.1-1-0.4-1.4
			s-0.9-1-2-1.7l-9.8-6.7l2-3l9.4,6.4c1.6,1.1,2.6,1.9,3.1,2.5s0.8,1.3,1.1,2.2c0.2,0.9,0.3,1.8,0.1,2.6s-0.6,1.7-1.2,2.6
			c-0.8,1.1-1.7,1.9-2.8,2.4c-1.1,0.5-2.2,0.6-3.2,0.5c-1-0.2-2.5-0.9-4.4-2.2L11.4,96z"/>
		<path d="M22.5,80.5l2.9-3.2c1.9-2,3.5-3.3,4.9-3.9s3-0.6,4.7-0.2s3.3,1.3,4.9,2.7c1.1,1,1.9,2.1,2.5,3.3s0.9,2.4,0.9,3.5
			c0,1.2-0.2,2.2-0.6,3.2c-0.4,0.9-1.5,2.3-3.2,4.1l-2.9,3.2L22.5,80.5z M27.5,80.2l8.9,8.1l1.1-1.2c1.1-1.2,1.8-2.2,2-3
			s0.2-1.7-0.2-2.6c-0.3-1-1-1.9-2-2.8c-1.5-1.4-3-2-4.6-1.9c-1.4,0.1-2.9,0.9-4.4,2.6L27.5,80.2z"/>
		<path d="M43.5,59.4c2.1-1.7,4.5-2.3,7.2-2s5,1.6,6.7,3.8s2.4,4.6,2.1,7.3c-0.3,2.7-1.5,4.9-3.7,6.6c-2.2,1.8-4.7,2.5-7.4,2.1
			s-4.9-1.6-6.6-3.7c-1.1-1.4-1.8-3-2.1-4.7s-0.1-3.4,0.6-5.1S42.2,60.5,43.5,59.4z M45.7,62.2c-1.4,1.1-2.2,2.5-2.3,4.2
			c-0.2,1.7,0.3,3.3,1.5,4.8c1.3,1.6,2.9,2.5,4.9,2.5c1.5,0,2.9-0.4,4.1-1.4c1.3-1.1,2.1-2.5,2.3-4.2s-0.3-3.3-1.4-4.7
			c-1.1-1.4-2.6-2.2-4.3-2.5C48.6,60.7,47.1,61.1,45.7,62.2z"/>
		<path d="M80.9,41.9l-1.3,3.3c-2.3-0.9-4.5-0.9-6.4,0c-1.6,0.8-2.8,2-3.3,3.6c-0.6,1.7-0.5,3.3,0.3,4.9c0.5,1.1,1.3,2,2.2,2.7
			s2,1,3.1,1.1s2.3-0.2,3.4-0.7c0.9-0.4,1.7-1,2.3-1.8s1.2-1.8,1.7-3.2l3.3,1.3c-0.7,1.8-1.5,3.3-2.4,4.3s-2.1,1.9-3.5,2.6
			c-2.7,1.3-5.3,1.5-7.8,0.6s-4.4-2.7-5.6-5.3c-0.8-1.7-1.1-3.4-1-5.1c0.1-1.7,0.7-3.3,1.8-4.8c1.1-1.5,2.4-2.6,4.1-3.4
			c1.4-0.7,2.9-1,4.5-1C77.9,40.9,79.4,41.2,80.9,41.9z"/>
		<path d="M84.3,37.3l3.4-1.1L92.5,51l5-1.6l1.1,3.3l-8.5,2.7L84.3,37.3z"/>
		<path d="M96.8,33.4l3.6-0.7l2.4,12c0.2,1,0.5,1.8,0.7,2.1s0.6,0.7,1.1,0.8c0.5,0.2,1,0.2,1.6,0.1c0.6-0.1,1.1-0.4,1.5-0.8
			c0.4-0.4,0.6-0.8,0.7-1.3s0-1.3-0.3-2.6l-2.4-11.6l3.6-0.7l2.3,11.1c0.4,1.9,0.5,3.2,0.5,4c-0.1,0.8-0.3,1.6-0.8,2.3
			c-0.5,0.8-1,1.4-1.8,1.9c-0.7,0.5-1.6,0.8-2.6,1c-1.4,0.3-2.6,0.2-3.7-0.2s-2-1-2.6-1.9c-0.6-0.8-1.2-2.4-1.6-4.6L96.8,33.4z"/>
		<path d="M116.8,49.1l-1.4-19l3-0.2c1.7-0.1,3-0.1,3.8,0.1c1.2,0.2,2.1,0.7,2.8,1.5c0.7,0.8,1.1,1.7,1.2,2.8c0.1,0.7-0.1,1.4-0.3,2
			s-0.7,1.2-1.4,1.8c1.2,0.5,2.1,1.1,2.7,1.8s0.9,1.7,1,2.8s-0.1,2.1-0.6,3c-0.5,0.9-1.1,1.6-2,2.1s-2,0.8-3.6,0.9L116.8,49.1z
			 M119.3,33.3l0.3,4l0.8-0.1c0.9-0.1,1.5-0.3,1.9-0.7s0.6-0.9,0.5-1.6c0-0.6-0.3-1-0.7-1.4s-1.1-0.4-1.9-0.4L119.3,33.3z
			 M119.8,40.5l0.4,4.9l0.9-0.1c1.5-0.1,2.5-0.4,3-0.8s0.7-1,0.7-1.7c-0.1-0.8-0.4-1.4-1.1-1.9s-1.7-0.6-3.1-0.5L119.8,40.5z"/>
		<path d="M150.8,30.2l3.5,0.4L152.1,50l-3.5-0.4l0.2-1.5c-0.8,0.6-1.5,1-2.2,1.2s-1.5,0.3-2.3,0.2c-1.8-0.2-3.3-1.1-4.4-2.6
			c-1.2-1.5-1.6-3.4-1.4-5.4c0.2-2.2,1.1-3.9,2.5-5.1c1.4-1.2,3.1-1.7,4.9-1.5c0.8,0.1,1.6,0.3,2.3,0.7s1.3,1,1.9,1.7L150.8,30.2z
			 M146.2,38c-1.1-0.1-2,0.2-2.8,0.8c-0.8,0.7-1.3,1.6-1.4,2.8c-0.1,1.2,0.1,2.2,0.8,3.1s1.5,1.4,2.6,1.5s2.1-0.2,2.9-0.8
			c0.8-0.7,1.3-1.6,1.4-2.9c0.1-1.2-0.1-2.2-0.8-3.1C148.2,38.6,147.3,38.1,146.2,38z"/>
		<path d="M170.2,48.1l-11-2.8c-0.1,1,0.1,1.9,0.7,2.6c0.5,0.7,1.3,1.3,2.4,1.5c1.3,0.3,2.5,0.2,3.6-0.5l2.5,2.1
			c-1,0.8-2,1.4-3.2,1.6c-1.1,0.2-2.4,0.2-3.8-0.2c-2.1-0.5-3.7-1.7-4.7-3.4s-1.2-3.6-0.7-5.6c0.5-2.1,1.6-3.6,3.3-4.7
			c1.7-1,3.5-1.3,5.6-0.8s3.7,1.7,4.7,3.4s1.2,3.7,0.6,6L170.2,48.1z M167.4,44.6c0-0.8-0.3-1.5-0.9-2.2c-0.5-0.6-1.3-1.1-2.1-1.3
			c-1-0.2-1.9-0.2-2.7,0.2c-0.5,0.2-1.1,0.7-1.7,1.4L167.4,44.6z"/>
		<path d="M186.2,40.2l3.1,1.5l1.8,14.8l5.5-11.2l3.3,1.6L191.5,64l-3.1-1.5l-1.8-14.8l-5.5,11.2l-3.3-1.6L186.2,40.2z"/>
		<path d="M210.3,53.6l3,2.1l-4.9,19.8l-3.1-2.2l1-4.1l-6.4-4.4l-3.5,2.3l-3.1-2.2L210.3,53.6z M208.9,58.7l-5.8,3.9l4.2,2.9
			L208.9,58.7z"/>
		<path d="M223.1,63.1l2.5,2.4l-2.8,14.7l8.6-9l2.6,2.5l-13,13.7l-2.5-2.4l2.8-14.6l-8.6,9l-2.6-2.5L223.1,63.1z"/>
		<path d="M236.9,76.9l6.7,8.1l-2.8,2.3l-2.2-2.7l-11.9,9.8l-2.3-2.8l11.9-9.8l-2.1-2.6L236.9,76.9z"/>
		<path d="M245.9,88.1l5.8,8.6l-2.9,2l-3.8-5.6l-2.9,1.9l3.8,5.6l-2.9,1.9l-3.8-5.6l-4.2,2.8l3.8,5.6l-3,2l-5.8-8.6L245.9,88.1z"/>
		<path d="M256.4,111.1l-3.3-1.3c0.7-1.4,0.9-2.6,0.4-3.5c-0.2-0.4-0.5-0.7-0.9-0.9c-0.4-0.2-0.7-0.2-1,0c-0.3,0.1-0.5,0.4-0.7,0.7
			c-0.2,0.4-0.5,1.6-0.9,3.5c-0.4,1.8-0.6,2.8-0.8,3.2c-0.3,1-0.7,1.8-1.2,2.4s-1,1.1-1.8,1.4c-1.4,0.7-2.8,0.8-4.2,0.3
			s-2.5-1.5-3.3-3c-0.6-1.2-0.9-2.4-0.8-3.6c0.1-1.2,0.7-2.4,1.6-3.7l3,1.9c-1.1,1.6-1.3,2.9-0.8,4c0.3,0.6,0.7,0.9,1.2,1.1
			s1,0.2,1.4,0s0.7-0.5,0.9-1s0.5-1.4,0.8-2.8c0.5-2.6,1.1-4.4,1.6-5.4s1.2-1.6,2-2.1c1.2-0.6,2.4-0.7,3.7-0.2s2.3,1.3,3,2.6
			c0.4,0.8,0.7,1.7,0.7,2.7C257.3,108.5,257,109.7,256.4,111.1z"/>
	</g>
	<g>
		<g>
			<path d="M62.4,270c-0.5-1.6-0.4-3,0.4-4.2c0.6-1,1.7-1.2,2.7-0.6c0.8,0.5,1.1,1.2,1,2.1c-0.4,1.8-0.3,2.7,1.1,3.6
				c1.7,1,3.3,0.3,4.8-2.2s2.7-4.6,3.6-6.5s1.5-2.8,1.5-2.9c0.7-1.2,1.8-1.4,3.1-0.6c1.3,0.8,1.6,1.8,0.9,3c-0.1,0.1-0.7,1.1-1.9,3
				c-1.2,1.9-2.5,3.9-3.8,6.2c-2.7,4.5-6.4,5.3-10.1,3.1C64,272.9,62.9,271.6,62.4,270z"/>
			<path d="M82.3,265.9c0.7-2,1.1-3,1.1-3.1c0.5-1.3,1.5-1.7,2.9-1.1c1.5,0.6,1.9,1.5,1.4,2.9c0,0-0.5,0.9-1.3,2.6s-1.8,4-2.9,6.8
				c-1.1,2.9-0.4,4.8,2.3,5.9c2.6,1,4.6,0.1,5.7-2.7c1.1-2.8,1.9-5.1,2.5-7c0.5-1.8,0.9-2.8,0.9-2.8c0.5-1.3,1.5-1.7,3-1.1
				c1.4,0.6,1.9,1.5,1.3,2.8c0,0.1-0.5,1.1-1.3,3s-1.7,4.1-2.7,6.6c-1.9,4.8-5.9,6.4-10.7,4.5c-4.8-1.9-6.7-5.7-4.8-10.6
				C80.8,270.1,81.6,267.9,82.3,265.9z"/>
			<path d="M98.9,278.9c0.3-1.3,1.2-1.8,2.4-1.5c0.2,0,0.6,0.2,1.1,0.4c0.6,0.2,1.1,0.3,1.5,0.4s0.9,0.2,1.5,0.3
				c0.6,0.1,1,0.1,1.2,0.2c1.3,0.3,1.7,1.1,1.4,2.4c-0.3,1.3-1.1,1.8-2.4,1.6c-0.2,0-0.6-0.2-1.1-0.4c-0.6-0.2-1-0.3-1.4-0.4
				s-0.9-0.2-1.5-0.3c-0.6-0.1-1-0.1-1.2-0.2C99.1,281,98.6,280.2,98.9,278.9z"/>
			<path d="M110.7,288.8c-1.1-1.2-1.6-2.5-1.4-4c0.1-1.1,1-1.8,2.2-1.7c0.9,0.1,1.5,0.6,1.7,1.5c0.4,1.8,0.9,2.6,2.5,2.7
				c1.9,0.2,3.1-1.1,3.4-4s0.5-5.3,0.5-7.4c0.1-2.1,0.1-3.2,0.1-3.2c0.2-1.4,1-2,2.6-1.9c1.5,0.2,2.2,1,2.1,2.4
				c0,0.1-0.2,1.3-0.5,3.5s-0.6,4.6-0.9,7.2c-0.6,5.3-3.5,7.5-7.8,7.1C113.4,290.8,111.9,290,110.7,288.8z"/>
			<path d="M127.4,289.4c0-0.2,0-1.1,0.1-2.6c0.1-1.6,0.1-3.4,0.1-5.5s-0.1-3.9-0.3-5.5c-0.1-1.6-0.2-2.5-0.2-2.7
				c0-1.4,0.7-2.2,2.3-2.2c1.5,0,2.3,0.7,2.4,2.1c0,0.2,0,1.1-0.1,2.7s-0.1,3.4-0.1,5.5s0.1,3.9,0.2,5.5c0.1,1.6,0.2,2.5,0.2,2.6
				c0,1.4-0.7,2.2-2.3,2.2C128.2,291.6,127.4,290.9,127.4,289.4z"/>
			<path d="M141.8,286.1c-0.1-1.6-0.3-3.4-0.5-5.5c-0.3-2-0.5-3.6-0.8-4.9c-0.1-0.8-0.6-1.1-1.5-0.9c-1.2,0.3-2.8,0.6-3.2,0.6
				c-1.3,0.2-2-0.4-2.2-1.8s0.4-2.2,1.8-2.4l13.1-1.7c1.4-0.2,2.2,0.4,2.4,1.8s-0.4,2.1-1.6,2.3c-0.2,0-0.7,0.1-1.4,0.1
				s-1.3,0.1-1.9,0.1c-0.8,0-1.3,0.5-1.2,1.3c0.1,1.3,0.3,3,0.5,5c0.3,2.1,0.6,3.9,0.9,5.5c0.3,1.6,0.5,2.4,0.5,2.6
				c0.2,1.4-0.5,2.2-2,2.4c-1.5,0.2-2.4-0.4-2.6-1.8C142,288.5,141.9,287.7,141.8,286.1z"/>
			<path d="M158.7,286.7c-1.8-0.4-2.9-1.3-3.3-2.6c-0.4-1.2,0.2-2.2,1.3-2.6c0.8-0.2,1.6-0.1,2.4,0.5c1.3,1.2,2.9,1.4,5,0.8
				c2-0.6,3.1-1.8,2.7-3.2c-0.1-0.8-1-1.2-1.8-1.4c-0.2-0.1-0.6-0.1-1.1-0.1h-1.1h-1.3l-1.5,0.1c-0.4,0-0.8,0-1.5,0
				s-1.2-0.1-1.5-0.2c-0.7-0.2-2-0.5-2.6-1c-0.7-0.5-1.3-1.4-1.7-2.5c-0.5-1.7-0.2-3.2,0.8-4.6s2.6-2.5,4.8-3.1
				c2.2-0.7,4.1-0.8,5.8-0.3s2.7,1.3,3.1,2.5c0.4,1.2-0.2,2.2-1.3,2.5c-0.9,0.3-1.8,0.1-2.6-0.6c-1.1-1-2.6-1.3-4.3-0.8
				c-1.9,0.6-2.9,1.8-2.5,3.1c0.2,0.7,0.8,1.2,1.8,1.3c0.5,0.1,1,0.1,1.4,0.1h1.8h1.8c0.4,0,1,0,1.7,0.1c0.8,0,1.4,0.1,1.8,0.3
				c1.5,0.5,3.2,1.5,3.7,3.7c0.5,1.7,0.3,3.3-0.8,4.6c-1.1,1.3-2.8,2.3-5,3C162.5,286.9,160.5,287,158.7,286.7z"/>
			<path d="M169.8,268.6c-1-1.8-1.5-2.8-1.6-2.9c-0.7-1.3-0.3-2.3,1.1-3c1.4-0.7,2.4-0.4,3.1,0.8c0,0,0.4,1,1.1,2.7s1.8,4,3.2,6.7
				c1.4,2.8,3.4,3.5,6,2.2c2.5-1.3,3.1-3.4,1.7-6.1c-1.4-2.7-2.6-4.8-3.6-6.4s-1.5-2.5-1.5-2.5c-0.7-1.3-0.3-2.3,1.1-3
				c1.4-0.7,2.4-0.4,3,0.9c0,0.1,0.5,1.1,1.4,2.9s1.9,4,3.2,6.4c2.4,4.6,0.9,8.6-3.7,11s-8.7,1.2-11.1-3.4
				C171.9,272.5,170.7,270.4,169.8,268.6z"/>
		</g>
	</g>
</g>
<g id="save" class="st5">
	<g class="st6">
		
			<image style="overflow:visible;enable-background:new    ;" width="385" height="385" xlink:href="C43AECC5.jpg"  transform="matrix(0.7462 0 0 -0.7466 -5.9362 307.3133)">
		</image>
	</g>
</g>
</svg>
